<svg xmlns="http://www.w3.org/2000/svg" viewBox="0 0 28 28">
  <path class="logo__bg" d="M2.5 0h23A2.5 2.5 45 0 1 28 2.5v23a2.5 2.5 135 0 1-2.5 2.5h-23A2.5 2.5 45 0 1 0 25.5v-23A2.5 2.5 135 0 1 2.5 0Z"/>
  <path class="logo__line" d="M15 5V2.4a.4.4 45 0 0-.4-.4H2.4a.4.4 135 0 0-.4.4v12.2a.4.4 45 0 0 .4.4h21.2a.4.4 45 0 1 .4.4v8.2a.4.4 135 0 1-.4.4h-8.2a.4.4 45 0 1-.4-.4v-6.2a.4.4 45 0 0-.4-.4h-1.2a.4.4 135 0 0-.4.4v8.2a.4.4 45 0 0 .4.4h12.2a.4.4 135 0 0 .4-.4V13.4a.4.4 45 0 0-.4-.4H4.4a.4.4 45 0 1-.4-.4V4.4a.4.4 135 0 1 .4-.4h8.2a.4.4 45 0 1 .4.4v6.2a.4.4 45 0 0 .4.4h1.2a.4.4 135 0 0 .4-.4V5"/>
  <path class="logo__square" d="M2 20v-2.6a.4.4 135 0 1 .4-.4h8.2a.4.4 45 0 1 .4.4v8.2a.4.4 135 0 1-.4.4H2.4a.4.4 45 0 1-.4-.4V17m2 4v2.6a.4.4 45 0 0 .4.4h4.2a.4.4 135 0 0 .4-.4v-4.2a.4.4 45 0 0-.4-.4H4.4a.4.4 135 0 0-.4.4V21M20 2h5.6a.4.4 45 0 1 .4.4v8.2a.4.4 135 0 1-.4.4h-8.2a.4.4 45 0 1-.4-.4V2.4a.4.4 135 0 1 .4-.4H20m-1 4v2.6a.4.4 45 0 0 .4.4h4.2a.4.4 135 0 0 .4-.4V4.4a.4.4 45 0 0-.4-.4h-4.2a.4.4 135 0 0-.4.4V6"/>
</svg>
